<svg width="141" height="53" viewBox="0 0 141 53" fill="none" xmlns="http://www.w3.org/2000/svg">
<g clip-path="url(#clip0_287_309)">
<path d="M1.86094 53C2.8887 53 3.72187 52.1818 3.72187 51.1724C3.72187 50.1631 2.8887 49.3448 1.86094 49.3448C0.83317 49.3448 0 50.1631 0 51.1724C0 52.1818 0.83317 53 1.86094 53Z" fill="#B29BB3"/>
<path d="M14.318 53C15.3457 53 16.1789 52.1818 16.1789 51.1724C16.1789 50.1631 15.3457 49.3448 14.318 49.3448C13.2902 49.3448 12.457 50.1631 12.457 51.1724C12.457 52.1818 13.2902 53 14.318 53Z" fill="#B29BB3"/>
<path d="M26.7713 53C27.7991 53 28.6323 52.1818 28.6323 51.1724C28.6323 50.1631 27.7991 49.3448 26.7713 49.3448C25.7436 49.3448 24.9104 50.1631 24.9104 51.1724C24.9104 52.1818 25.7436 53 26.7713 53Z" fill="#B29BB3"/>
<path d="M39.2247 49.3448C38.8566 49.3448 38.4969 49.452 38.1908 49.6528C37.8848 49.8537 37.6463 50.1391 37.5054 50.473C37.3646 50.807 37.3277 51.1745 37.3995 51.529C37.4713 51.8835 37.6486 52.2091 37.9088 52.4647C38.1691 52.7203 38.5007 52.8944 38.8617 52.9649C39.2227 53.0354 39.5968 52.9992 39.9369 52.8609C40.2769 52.7226 40.5675 52.4883 40.772 52.1878C40.9765 51.8872 41.0856 51.5339 41.0856 51.1724C41.0856 50.6877 40.8896 50.2229 40.5406 49.8801C40.1916 49.5374 39.7183 49.3448 39.2247 49.3448Z" fill="#B29BB3"/>
<path d="M51.682 49.3448C51.3139 49.3448 50.9541 49.452 50.6481 49.6528C50.3421 49.8537 50.1036 50.1391 49.9627 50.473C49.8219 50.807 49.785 51.1745 49.8568 51.529C49.9286 51.8835 50.1058 52.2091 50.3661 52.4647C50.6264 52.7203 50.9579 52.8944 51.3189 52.9649C51.6799 53.0354 52.0541 52.9992 52.3941 52.8609C52.7342 52.7226 53.0248 52.4883 53.2293 52.1878C53.4338 51.8872 53.5429 51.5339 53.5429 51.1724C53.5429 50.6877 53.3469 50.2229 52.9979 49.8801C52.6489 49.5374 52.1755 49.3448 51.682 49.3448Z" fill="#B29BB3"/>
<path d="M64.1354 53C65.1631 53 65.9963 52.1818 65.9963 51.1724C65.9963 50.1631 65.1631 49.3448 64.1354 49.3448C63.1076 49.3448 62.2744 50.1631 62.2744 51.1724C62.2744 52.1818 63.1076 53 64.1354 53Z" fill="#B29BB3"/>
<path d="M1.86094 43.131C2.8887 43.131 3.72187 42.3128 3.72187 41.3034C3.72187 40.2941 2.8887 39.4759 1.86094 39.4759C0.83317 39.4759 0 40.2941 0 41.3034C0 42.3128 0.83317 43.131 1.86094 43.131Z" fill="#B29BB3"/>
<path d="M14.318 43.131C15.3457 43.131 16.1789 42.3128 16.1789 41.3034C16.1789 40.2941 15.3457 39.4759 14.318 39.4759C13.2902 39.4759 12.457 40.2941 12.457 41.3034C12.457 42.3128 13.2902 43.131 14.318 43.131Z" fill="#B29BB3"/>
<path d="M39.2247 39.4759C38.8566 39.4759 38.4969 39.583 38.1908 39.7839C37.8848 39.9847 37.6463 40.2701 37.5054 40.6041C37.3646 40.938 37.3277 41.3055 37.3995 41.66C37.4713 42.0145 37.6486 42.3401 37.9088 42.5957C38.1691 42.8513 38.5007 43.0254 38.8617 43.0959C39.2227 43.1664 39.5968 43.1302 39.9369 42.9919C40.2769 42.8536 40.5675 42.6193 40.772 42.3188C40.9765 42.0183 41.0856 41.6649 41.0856 41.3034C41.0856 40.8187 40.8896 40.3539 40.5406 40.0112C40.1916 39.6684 39.7183 39.4759 39.2247 39.4759Z" fill="#B29BB3"/>
<path d="M51.682 39.4759C51.3139 39.4759 50.9541 39.583 50.6481 39.7839C50.3421 39.9847 50.1036 40.2701 49.9627 40.6041C49.8219 40.938 49.785 41.3055 49.8568 41.66C49.9286 42.0145 50.1058 42.3401 50.3661 42.5957C50.6264 42.8513 50.9579 43.0254 51.3189 43.0959C51.6799 43.1664 52.0541 43.1302 52.3941 42.9919C52.7342 42.8536 53.0248 42.6193 53.2293 42.3188C53.4338 42.0183 53.5429 41.6649 53.5429 41.3034C53.5429 40.8187 53.3469 40.3539 52.9979 40.0112C52.6489 39.6684 52.1755 39.4759 51.682 39.4759Z" fill="#B29BB3"/>
<path d="M64.1354 43.131C65.1631 43.131 65.9963 42.3128 65.9963 41.3034C65.9963 40.2941 65.1631 39.4759 64.1354 39.4759C63.1076 39.4759 62.2744 40.2941 62.2744 41.3034C62.2744 42.3128 63.1076 43.131 64.1354 43.131Z" fill="#B29BB3"/>
<path d="M1.86094 29.6069C1.49288 29.6069 1.13308 29.7141 0.827047 29.9149C0.521017 30.1157 0.282494 30.4011 0.141644 30.7351C0.000794202 31.069 -0.0360422 31.4365 0.0357624 31.791C0.107567 32.1455 0.284787 32.4712 0.545044 32.7268C0.805301 32.9824 1.1369 33.1564 1.49789 33.227C1.85887 33.2975 2.23304 33.2613 2.57308 33.1229C2.91313 32.9846 3.20377 32.7504 3.40826 32.4498C3.61274 32.1493 3.72188 31.7959 3.72188 31.4345C3.72188 30.9498 3.52581 30.4849 3.17682 30.1422C2.82783 29.7994 2.35449 29.6069 1.86094 29.6069Z" fill="#B29BB3"/>
<path d="M14.3143 29.6069C13.9462 29.6069 13.5865 29.7141 13.2804 29.9149C12.9744 30.1157 12.7359 30.4011 12.595 30.7351C12.4542 31.069 12.4173 31.4365 12.4891 31.791C12.5609 32.1455 12.7382 32.4712 12.9984 32.7268C13.2587 32.9824 13.5903 33.1564 13.9513 33.227C14.3122 33.2975 14.6864 33.2613 15.0265 33.1229C15.3665 32.9846 15.6571 32.7504 15.8616 32.4498C16.0661 32.1493 16.1752 31.7959 16.1752 31.4345C16.1752 30.9498 15.9792 30.4849 15.6302 30.1422C15.2812 29.7994 14.8079 29.6069 14.3143 29.6069Z" fill="#B29BB3"/>
<path d="M26.7713 29.6069C26.4033 29.6069 26.0435 29.7141 25.7374 29.9149C25.4314 30.1157 25.1929 30.4011 25.052 30.7351C24.9112 31.069 24.8744 31.4365 24.9462 31.791C25.018 32.1455 25.1952 32.4712 25.4554 32.7268C25.7157 32.9824 26.0473 33.1564 26.4083 33.227C26.7693 33.2975 27.1434 33.2613 27.4835 33.1229C27.8235 32.9846 28.1142 32.7504 28.3187 32.4498C28.5231 32.1493 28.6323 31.7959 28.6323 31.4345C28.6323 30.9498 28.4362 30.4849 28.0872 30.1422C27.7382 29.7994 27.2649 29.6069 26.7713 29.6069Z" fill="#B29BB3"/>
<path d="M26.7713 39.4759C26.4033 39.4759 26.0435 39.583 25.7374 39.7839C25.4314 39.9847 25.1929 40.2701 25.052 40.6041C24.9112 40.938 24.8744 41.3055 24.9462 41.66C25.018 42.0145 25.1952 42.3401 25.4554 42.5957C25.7157 42.8513 26.0473 43.0254 26.4083 43.0959C26.7693 43.1664 27.1434 43.1302 27.4835 42.9919C27.8235 42.8536 28.1142 42.6193 28.3187 42.3188C28.5231 42.0183 28.6323 41.6649 28.6323 41.3034C28.6323 40.8187 28.4362 40.3539 28.0872 40.0112C27.7382 39.6684 27.2649 39.4759 26.7713 39.4759Z" fill="#B29BB3"/>
<path d="M39.2247 29.6069C38.8566 29.6069 38.4969 29.7141 38.1908 29.9149C37.8848 30.1157 37.6463 30.4011 37.5054 30.7351C37.3646 31.069 37.3277 31.4365 37.3995 31.791C37.4713 32.1455 37.6486 32.4712 37.9088 32.7268C38.1691 32.9824 38.5007 33.1564 38.8617 33.227C39.2227 33.2975 39.5968 33.2613 39.9369 33.1229C40.2769 32.9846 40.5675 32.7504 40.772 32.4498C40.9765 32.1493 41.0856 31.7959 41.0856 31.4345C41.0856 30.9498 40.8896 30.4849 40.5406 30.1422C40.1916 29.7994 39.7183 29.6069 39.2247 29.6069Z" fill="#B29BB3"/>
<path d="M51.682 29.6069C51.3139 29.6069 50.9541 29.7141 50.6481 29.9149C50.3421 30.1157 50.1036 30.4011 49.9627 30.7351C49.8219 31.069 49.785 31.4365 49.8568 31.791C49.9286 32.1455 50.1058 32.4712 50.3661 32.7268C50.6264 32.9824 50.9579 33.1564 51.3189 33.227C51.6799 33.2975 52.0541 33.2613 52.3941 33.1229C52.7342 32.9846 53.0248 32.7504 53.2293 32.4498C53.4338 32.1493 53.5429 31.7959 53.5429 31.4345C53.5429 30.9498 53.3469 30.4849 52.9979 30.1422C52.6489 29.7994 52.1755 29.6069 51.682 29.6069Z" fill="#B29BB3"/>
<path d="M64.1353 29.6069C63.7673 29.6069 63.4075 29.7141 63.1015 29.9149C62.7954 30.1157 62.5569 30.4011 62.4161 30.7351C62.2752 31.069 62.2384 31.4365 62.3102 31.791C62.382 32.1455 62.5592 32.4712 62.8195 32.7268C63.0797 32.9824 63.4113 33.1564 63.7723 33.227C64.1333 33.2975 64.5075 33.2613 64.8475 33.1229C65.1875 32.9846 65.4782 32.7504 65.6826 32.4498C65.8871 32.1493 65.9963 31.7959 65.9963 31.4345C65.9963 30.9498 65.8002 30.4849 65.4512 30.1422C65.1022 29.7994 64.6289 29.6069 64.1353 29.6069Z" fill="#B29BB3"/>
<path d="M1.86094 23.3931C2.8887 23.3931 3.72187 22.5749 3.72187 21.5655C3.72187 20.5562 2.8887 19.7379 1.86094 19.7379C0.83317 19.7379 0 20.5562 0 21.5655C0 22.5749 0.83317 23.3931 1.86094 23.3931Z" fill="#B29BB3"/>
<path d="M14.318 23.3931C15.3457 23.3931 16.1789 22.5749 16.1789 21.5655C16.1789 20.5562 15.3457 19.7379 14.318 19.7379C13.2902 19.7379 12.457 20.5562 12.457 21.5655C12.457 22.5749 13.2902 23.3931 14.318 23.3931Z" fill="#B29BB3"/>
<path d="M26.7713 23.3931C27.7991 23.3931 28.6323 22.5749 28.6323 21.5655C28.6323 20.5562 27.7991 19.7379 26.7713 19.7379C25.7436 19.7379 24.9104 20.5562 24.9104 21.5655C24.9104 22.5749 25.7436 23.3931 26.7713 23.3931Z" fill="#B29BB3"/>
<path d="M39.2247 19.7379C38.8566 19.7379 38.4969 19.8451 38.1908 20.0459C37.8848 20.2468 37.6463 20.5322 37.5054 20.8661C37.3646 21.2001 37.3277 21.5675 37.3995 21.9221C37.4713 22.2766 37.6486 22.6022 37.9088 22.8578C38.1691 23.1134 38.5007 23.2875 38.8617 23.358C39.2227 23.4285 39.5968 23.3923 39.9369 23.254C40.2769 23.1157 40.5675 22.8814 40.772 22.5809C40.9765 22.2803 41.0856 21.927 41.0856 21.5655C41.0856 21.0808 40.8896 20.616 40.5406 20.2732C40.1916 19.9305 39.7183 19.7379 39.2247 19.7379Z" fill="#B29BB3"/>
<path d="M51.682 19.7379C51.3139 19.7379 50.9541 19.8451 50.6481 20.0459C50.3421 20.2468 50.1036 20.5322 49.9627 20.8661C49.8219 21.2001 49.785 21.5675 49.8568 21.9221C49.9286 22.2766 50.1058 22.6022 50.3661 22.8578C50.6264 23.1134 50.9579 23.2875 51.3189 23.358C51.6799 23.4285 52.0541 23.3923 52.3941 23.254C52.7342 23.1157 53.0248 22.8814 53.2293 22.5809C53.4338 22.2803 53.5429 21.927 53.5429 21.5655C53.5429 21.0808 53.3469 20.616 52.9979 20.2732C52.6489 19.9305 52.1755 19.7379 51.682 19.7379Z" fill="#B29BB3"/>
<path d="M64.1354 23.3931C65.1631 23.3931 65.9963 22.5749 65.9963 21.5655C65.9963 20.5562 65.1631 19.7379 64.1354 19.7379C63.1076 19.7379 62.2744 20.5562 62.2744 21.5655C62.2744 22.5749 63.1076 23.3931 64.1354 23.3931Z" fill="#B29BB3"/>
<path d="M1.86094 13.5241C2.8887 13.5241 3.72187 12.7059 3.72187 11.6966C3.72187 10.6872 2.8887 9.86897 1.86094 9.86897C0.83317 9.86897 0 10.6872 0 11.6966C0 12.7059 0.83317 13.5241 1.86094 13.5241Z" fill="#B29BB3"/>
<path d="M14.318 13.5241C15.3457 13.5241 16.1789 12.7059 16.1789 11.6966C16.1789 10.6872 15.3457 9.86897 14.318 9.86897C13.2902 9.86897 12.457 10.6872 12.457 11.6966C12.457 12.7059 13.2902 13.5241 14.318 13.5241Z" fill="#B29BB3"/>
<path d="M26.7713 13.5241C27.7991 13.5241 28.6323 12.7059 28.6323 11.6966C28.6323 10.6872 27.7991 9.86897 26.7713 9.86897C25.7436 9.86897 24.9104 10.6872 24.9104 11.6966C24.9104 12.7059 25.7436 13.5241 26.7713 13.5241Z" fill="#B29BB3"/>
<path d="M39.2247 9.86897C38.8566 9.86897 38.4969 9.97615 38.1908 10.177C37.8848 10.3778 37.6463 10.6632 37.5054 10.9972C37.3646 11.3311 37.3277 11.6986 37.3995 12.0531C37.4713 12.4076 37.6486 12.7333 37.9088 12.9888C38.1691 13.2444 38.5007 13.4185 38.8617 13.489C39.2227 13.5595 39.5968 13.5233 39.9369 13.385C40.2769 13.2467 40.5675 13.0125 40.772 12.7119C40.9765 12.4114 41.0856 12.058 41.0856 11.6966C41.0856 11.2118 40.8896 10.747 40.5406 10.4043C40.1916 10.0615 39.7183 9.86897 39.2247 9.86897Z" fill="#B29BB3"/>
<path d="M51.682 9.86897C51.3139 9.86897 50.9541 9.97615 50.6481 10.177C50.3421 10.3778 50.1036 10.6632 49.9627 10.9972C49.8219 11.3311 49.785 11.6986 49.8568 12.0531C49.9286 12.4076 50.1058 12.7333 50.3661 12.9888C50.6264 13.2444 50.9579 13.4185 51.3189 13.489C51.6799 13.5595 52.0541 13.5233 52.3941 13.385C52.7342 13.2467 53.0248 13.0125 53.2293 12.7119C53.4338 12.4114 53.5429 12.058 53.5429 11.6966C53.5429 11.2118 53.3469 10.747 52.9979 10.4043C52.6489 10.0615 52.1755 9.86897 51.682 9.86897Z" fill="#B29BB3"/>
<path d="M64.1354 13.5241C65.1631 13.5241 65.9963 12.7059 65.9963 11.6966C65.9963 10.6872 65.1631 9.86897 64.1354 9.86897C63.1076 9.86897 62.2744 10.6872 62.2744 11.6966C62.2744 12.7059 63.1076 13.5241 64.1354 13.5241Z" fill="#B29BB3"/>
<path d="M1.86094 0C1.49288 0 1.13308 0.107186 0.827047 0.308004C0.521017 0.508821 0.282494 0.79425 0.141644 1.1282C0.000794202 1.46215 -0.0360422 1.82962 0.0357624 2.18413C0.107567 2.53865 0.284787 2.86429 0.545044 3.11988C0.805301 3.37547 1.1369 3.54954 1.49789 3.62006C1.85887 3.69058 2.23304 3.65438 2.57308 3.51605C2.91313 3.37773 3.20377 3.14349 3.40826 2.84294C3.61274 2.5424 3.72188 2.18905 3.72188 1.82759C3.72188 1.34288 3.52581 0.878031 3.17682 0.535292C2.82783 0.192553 2.35449 0 1.86094 0Z" fill="#B29BB3"/>
<path d="M14.3143 0C13.9462 0 13.5865 0.107186 13.2804 0.308004C12.9744 0.508821 12.7359 0.79425 12.595 1.1282C12.4542 1.46215 12.4173 1.82962 12.4891 2.18413C12.5609 2.53865 12.7382 2.86429 12.9984 3.11988C13.2587 3.37547 13.5903 3.54954 13.9513 3.62006C14.3122 3.69058 14.6864 3.65438 15.0265 3.51605C15.3665 3.37773 15.6571 3.14349 15.8616 2.84294C16.0661 2.5424 16.1752 2.18905 16.1752 1.82759C16.1752 1.34288 15.9792 0.878031 15.6302 0.535292C15.2812 0.192553 14.8079 0 14.3143 0Z" fill="#B29BB3"/>
<path d="M26.7713 0C26.4033 0 26.0435 0.107186 25.7374 0.308004C25.4314 0.508821 25.1929 0.79425 25.052 1.1282C24.9112 1.46215 24.8744 1.82962 24.9462 2.18413C25.018 2.53865 25.1952 2.86429 25.4554 3.11988C25.7157 3.37547 26.0473 3.54954 26.4083 3.62006C26.7693 3.69058 27.1434 3.65438 27.4835 3.51605C27.8235 3.37773 28.1142 3.14349 28.3187 2.84294C28.5231 2.5424 28.6323 2.18905 28.6323 1.82759C28.6323 1.34288 28.4362 0.878031 28.0872 0.535292C27.7382 0.192553 27.2649 0 26.7713 0Z" fill="#B29BB3"/>
<path d="M39.2247 0C38.8566 0 38.4969 0.107186 38.1908 0.308004C37.8848 0.508821 37.6463 0.79425 37.5054 1.1282C37.3646 1.46215 37.3277 1.82962 37.3995 2.18413C37.4713 2.53865 37.6486 2.86429 37.9088 3.11988C38.1691 3.37547 38.5007 3.54954 38.8617 3.62006C39.2227 3.69058 39.5968 3.65438 39.9369 3.51605C40.2769 3.37773 40.5675 3.14349 40.772 2.84294C40.9765 2.5424 41.0856 2.18905 41.0856 1.82759C41.0856 1.34288 40.8896 0.878031 40.5406 0.535292C40.1916 0.192553 39.7183 0 39.2247 0Z" fill="#B29BB3"/>
<path d="M51.682 0C51.3139 0 50.9541 0.107186 50.6481 0.308004C50.3421 0.508821 50.1036 0.79425 49.9627 1.1282C49.8219 1.46215 49.785 1.82962 49.8568 2.18413C49.9286 2.53865 50.1058 2.86429 50.3661 3.11988C50.6264 3.37547 50.9579 3.54954 51.3189 3.62006C51.6799 3.69058 52.0541 3.65438 52.3941 3.51605C52.7342 3.37773 53.0248 3.14349 53.2293 2.84294C53.4338 2.5424 53.5429 2.18905 53.5429 1.82759C53.5429 1.34288 53.3469 0.878031 52.9979 0.535292C52.6489 0.192553 52.1755 0 51.682 0Z" fill="#B29BB3"/>
<path d="M64.1353 0C63.7673 0 63.4075 0.107186 63.1015 0.308004C62.7954 0.508821 62.5569 0.79425 62.4161 1.1282C62.2752 1.46215 62.2384 1.82962 62.3102 2.18413C62.382 2.53865 62.5592 2.86429 62.8195 3.11988C63.0797 3.37547 63.4113 3.54954 63.7723 3.62006C64.1333 3.69058 64.5075 3.65438 64.8475 3.51605C65.1875 3.37773 65.4782 3.14349 65.6826 2.84294C65.8871 2.5424 65.9963 2.18905 65.9963 1.82759C65.9963 1.34288 65.8002 0.878031 65.4512 0.535292C65.1022 0.192553 64.6289 0 64.1353 0Z" fill="#B29BB3"/>
</g>
<g clip-path="url(#clip1_287_309)">
<path d="M76.8609 53C77.8887 53 78.7219 52.1818 78.7219 51.1724C78.7219 50.1631 77.8887 49.3448 76.8609 49.3448C75.8332 49.3448 75 50.1631 75 51.1724C75 52.1818 75.8332 53 76.8609 53Z" fill="#B29BB3"/>
<path d="M89.318 53C90.3457 53 91.1789 52.1818 91.1789 51.1724C91.1789 50.1631 90.3457 49.3448 89.318 49.3448C88.2902 49.3448 87.457 50.1631 87.457 51.1724C87.457 52.1818 88.2902 53 89.318 53Z" fill="#B29BB3"/>
<path d="M101.771 53C102.799 53 103.632 52.1818 103.632 51.1724C103.632 50.1631 102.799 49.3448 101.771 49.3448C100.744 49.3448 99.9104 50.1631 99.9104 51.1724C99.9104 52.1818 100.744 53 101.771 53Z" fill="#B29BB3"/>
<path d="M114.225 49.3448C113.857 49.3448 113.497 49.452 113.191 49.6528C112.885 49.8537 112.646 50.1391 112.505 50.473C112.365 50.807 112.328 51.1745 112.4 51.529C112.471 51.8835 112.649 52.2091 112.909 52.4647C113.169 52.7203 113.501 52.8944 113.862 52.9649C114.223 53.0354 114.597 52.9992 114.937 52.8609C115.277 52.7226 115.568 52.4883 115.772 52.1878C115.977 51.8872 116.086 51.5339 116.086 51.1724C116.086 50.6877 115.89 50.2229 115.541 49.8801C115.192 49.5374 114.718 49.3448 114.225 49.3448Z" fill="#B29BB3"/>
<path d="M126.682 49.3448C126.314 49.3448 125.954 49.452 125.648 49.6528C125.342 49.8537 125.104 50.1391 124.963 50.473C124.822 50.807 124.785 51.1745 124.857 51.529C124.929 51.8835 125.106 52.2091 125.366 52.4647C125.626 52.7203 125.958 52.8944 126.319 52.9649C126.68 53.0354 127.054 52.9992 127.394 52.8609C127.734 52.7226 128.025 52.4883 128.229 52.1878C128.434 51.8872 128.543 51.5339 128.543 51.1724C128.543 50.6877 128.347 50.2229 127.998 49.8801C127.649 49.5374 127.176 49.3448 126.682 49.3448Z" fill="#B29BB3"/>
<path d="M139.135 53C140.163 53 140.996 52.1818 140.996 51.1724C140.996 50.1631 140.163 49.3448 139.135 49.3448C138.108 49.3448 137.274 50.1631 137.274 51.1724C137.274 52.1818 138.108 53 139.135 53Z" fill="#B29BB3"/>
<path d="M76.8609 43.131C77.8887 43.131 78.7219 42.3128 78.7219 41.3034C78.7219 40.2941 77.8887 39.4759 76.8609 39.4759C75.8332 39.4759 75 40.2941 75 41.3034C75 42.3128 75.8332 43.131 76.8609 43.131Z" fill="#B29BB3"/>
<path d="M89.318 43.131C90.3457 43.131 91.1789 42.3128 91.1789 41.3034C91.1789 40.2941 90.3457 39.4759 89.318 39.4759C88.2902 39.4759 87.457 40.2941 87.457 41.3034C87.457 42.3128 88.2902 43.131 89.318 43.131Z" fill="#B29BB3"/>
<path d="M114.225 39.4759C113.857 39.4759 113.497 39.583 113.191 39.7839C112.885 39.9847 112.646 40.2701 112.505 40.6041C112.365 40.938 112.328 41.3055 112.4 41.66C112.471 42.0145 112.649 42.3401 112.909 42.5957C113.169 42.8513 113.501 43.0254 113.862 43.0959C114.223 43.1664 114.597 43.1302 114.937 42.9919C115.277 42.8536 115.568 42.6193 115.772 42.3188C115.977 42.0183 116.086 41.6649 116.086 41.3034C116.086 40.8187 115.89 40.3539 115.541 40.0112C115.192 39.6684 114.718 39.4759 114.225 39.4759Z" fill="#B29BB3"/>
<path d="M126.682 39.4759C126.314 39.4759 125.954 39.583 125.648 39.7839C125.342 39.9847 125.104 40.2701 124.963 40.6041C124.822 40.938 124.785 41.3055 124.857 41.66C124.929 42.0145 125.106 42.3401 125.366 42.5957C125.626 42.8513 125.958 43.0254 126.319 43.0959C126.68 43.1664 127.054 43.1302 127.394 42.9919C127.734 42.8536 128.025 42.6193 128.229 42.3188C128.434 42.0183 128.543 41.6649 128.543 41.3034C128.543 40.8187 128.347 40.3539 127.998 40.0112C127.649 39.6684 127.176 39.4759 126.682 39.4759Z" fill="#B29BB3"/>
<path d="M139.135 43.131C140.163 43.131 140.996 42.3128 140.996 41.3034C140.996 40.2941 140.163 39.4759 139.135 39.4759C138.108 39.4759 137.274 40.2941 137.274 41.3034C137.274 42.3128 138.108 43.131 139.135 43.131Z" fill="#B29BB3"/>
<path d="M76.8609 29.6069C76.4929 29.6069 76.1331 29.7141 75.827 29.9149C75.521 30.1157 75.2825 30.4011 75.1416 30.7351C75.0008 31.069 74.964 31.4365 75.0358 31.791C75.1076 32.1455 75.2848 32.4712 75.545 32.7268C75.8053 32.9824 76.1369 33.1564 76.4979 33.227C76.8589 33.2975 77.233 33.2613 77.5731 33.1229C77.9131 32.9846 78.2038 32.7504 78.4083 32.4498C78.6127 32.1493 78.7219 31.7959 78.7219 31.4345C78.7219 30.9498 78.5258 30.4849 78.1768 30.1422C77.8278 29.7994 77.3545 29.6069 76.8609 29.6069Z" fill="#B29BB3"/>
<path d="M89.3143 29.6069C88.9462 29.6069 88.5865 29.7141 88.2804 29.9149C87.9744 30.1157 87.7359 30.4011 87.595 30.7351C87.4542 31.069 87.4173 31.4365 87.4891 31.791C87.5609 32.1455 87.7382 32.4712 87.9984 32.7268C88.2587 32.9824 88.5903 33.1564 88.9513 33.227C89.3122 33.2975 89.6864 33.2613 90.0265 33.1229C90.3665 32.9846 90.6571 32.7504 90.8616 32.4498C91.0661 32.1493 91.1752 31.7959 91.1752 31.4345C91.1752 30.9498 90.9792 30.4849 90.6302 30.1422C90.2812 29.7994 89.8079 29.6069 89.3143 29.6069Z" fill="#B29BB3"/>
<path d="M101.771 29.6069C101.403 29.6069 101.043 29.7141 100.737 29.9149C100.431 30.1157 100.193 30.4011 100.052 30.7351C99.9112 31.069 99.8744 31.4365 99.9462 31.791C100.018 32.1455 100.195 32.4712 100.455 32.7268C100.716 32.9824 101.047 33.1564 101.408 33.227C101.769 33.2975 102.143 33.2613 102.483 33.1229C102.824 32.9846 103.114 32.7504 103.319 32.4498C103.523 32.1493 103.632 31.7959 103.632 31.4345C103.632 30.9498 103.436 30.4849 103.087 30.1422C102.738 29.7994 102.265 29.6069 101.771 29.6069Z" fill="#B29BB3"/>
<path d="M101.771 39.4759C101.403 39.4759 101.043 39.583 100.737 39.7839C100.431 39.9847 100.193 40.2701 100.052 40.6041C99.9112 40.938 99.8744 41.3055 99.9462 41.66C100.018 42.0145 100.195 42.3401 100.455 42.5957C100.716 42.8513 101.047 43.0254 101.408 43.0959C101.769 43.1664 102.143 43.1302 102.483 42.9919C102.824 42.8536 103.114 42.6193 103.319 42.3188C103.523 42.0183 103.632 41.6649 103.632 41.3034C103.632 40.8187 103.436 40.3539 103.087 40.0112C102.738 39.6684 102.265 39.4759 101.771 39.4759Z" fill="#B29BB3"/>
<path d="M114.225 29.6069C113.857 29.6069 113.497 29.7141 113.191 29.9149C112.885 30.1157 112.646 30.4011 112.505 30.7351C112.365 31.069 112.328 31.4365 112.4 31.791C112.471 32.1455 112.649 32.4712 112.909 32.7268C113.169 32.9824 113.501 33.1564 113.862 33.227C114.223 33.2975 114.597 33.2613 114.937 33.1229C115.277 32.9846 115.568 32.7504 115.772 32.4498C115.977 32.1493 116.086 31.7959 116.086 31.4345C116.086 30.9498 115.89 30.4849 115.541 30.1422C115.192 29.7994 114.718 29.6069 114.225 29.6069Z" fill="#B29BB3"/>
<path d="M126.682 29.6069C126.314 29.6069 125.954 29.7141 125.648 29.9149C125.342 30.1157 125.104 30.4011 124.963 30.7351C124.822 31.069 124.785 31.4365 124.857 31.791C124.929 32.1455 125.106 32.4712 125.366 32.7268C125.626 32.9824 125.958 33.1564 126.319 33.227C126.68 33.2975 127.054 33.2613 127.394 33.1229C127.734 32.9846 128.025 32.7504 128.229 32.4498C128.434 32.1493 128.543 31.7959 128.543 31.4345C128.543 30.9498 128.347 30.4849 127.998 30.1422C127.649 29.7994 127.176 29.6069 126.682 29.6069Z" fill="#B29BB3"/>
<path d="M139.135 29.6069C138.767 29.6069 138.407 29.7141 138.101 29.9149C137.795 30.1157 137.557 30.4011 137.416 30.7351C137.275 31.069 137.238 31.4365 137.31 31.791C137.382 32.1455 137.559 32.4712 137.819 32.7268C138.08 32.9824 138.411 33.1564 138.772 33.227C139.133 33.2975 139.507 33.2613 139.847 33.1229C140.188 32.9846 140.478 32.7504 140.683 32.4498C140.887 32.1493 140.996 31.7959 140.996 31.4345C140.996 30.9498 140.8 30.4849 140.451 30.1422C140.102 29.7994 139.629 29.6069 139.135 29.6069Z" fill="#B29BB3"/>
<path d="M76.8609 23.3931C77.8887 23.3931 78.7219 22.5749 78.7219 21.5655C78.7219 20.5562 77.8887 19.7379 76.8609 19.7379C75.8332 19.7379 75 20.5562 75 21.5655C75 22.5749 75.8332 23.3931 76.8609 23.3931Z" fill="#B29BB3"/>
<path d="M89.318 23.3931C90.3457 23.3931 91.1789 22.5749 91.1789 21.5655C91.1789 20.5562 90.3457 19.7379 89.318 19.7379C88.2902 19.7379 87.457 20.5562 87.457 21.5655C87.457 22.5749 88.2902 23.3931 89.318 23.3931Z" fill="#B29BB3"/>
<path d="M101.771 23.3931C102.799 23.3931 103.632 22.5749 103.632 21.5655C103.632 20.5562 102.799 19.7379 101.771 19.7379C100.744 19.7379 99.9104 20.5562 99.9104 21.5655C99.9104 22.5749 100.744 23.3931 101.771 23.3931Z" fill="#B29BB3"/>
<path d="M114.225 19.7379C113.857 19.7379 113.497 19.8451 113.191 20.0459C112.885 20.2468 112.646 20.5322 112.505 20.8661C112.365 21.2001 112.328 21.5675 112.4 21.9221C112.471 22.2766 112.649 22.6022 112.909 22.8578C113.169 23.1134 113.501 23.2875 113.862 23.358C114.223 23.4285 114.597 23.3923 114.937 23.254C115.277 23.1157 115.568 22.8814 115.772 22.5809C115.977 22.2803 116.086 21.927 116.086 21.5655C116.086 21.0808 115.89 20.616 115.541 20.2732C115.192 19.9305 114.718 19.7379 114.225 19.7379Z" fill="#B29BB3"/>
<path d="M126.682 19.7379C126.314 19.7379 125.954 19.8451 125.648 20.0459C125.342 20.2468 125.104 20.5322 124.963 20.8661C124.822 21.2001 124.785 21.5675 124.857 21.9221C124.929 22.2766 125.106 22.6022 125.366 22.8578C125.626 23.1134 125.958 23.2875 126.319 23.358C126.68 23.4285 127.054 23.3923 127.394 23.254C127.734 23.1157 128.025 22.8814 128.229 22.5809C128.434 22.2803 128.543 21.927 128.543 21.5655C128.543 21.0808 128.347 20.616 127.998 20.2732C127.649 19.9305 127.176 19.7379 126.682 19.7379Z" fill="#B29BB3"/>
<path d="M139.135 23.3931C140.163 23.3931 140.996 22.5749 140.996 21.5655C140.996 20.5562 140.163 19.7379 139.135 19.7379C138.108 19.7379 137.274 20.5562 137.274 21.5655C137.274 22.5749 138.108 23.3931 139.135 23.3931Z" fill="#B29BB3"/>
<path d="M76.8609 13.5241C77.8887 13.5241 78.7219 12.7059 78.7219 11.6966C78.7219 10.6872 77.8887 9.86897 76.8609 9.86897C75.8332 9.86897 75 10.6872 75 11.6966C75 12.7059 75.8332 13.5241 76.8609 13.5241Z" fill="#B29BB3"/>
<path d="M89.318 13.5241C90.3457 13.5241 91.1789 12.7059 91.1789 11.6966C91.1789 10.6872 90.3457 9.86897 89.318 9.86897C88.2902 9.86897 87.457 10.6872 87.457 11.6966C87.457 12.7059 88.2902 13.5241 89.318 13.5241Z" fill="#B29BB3"/>
<path d="M101.771 13.5241C102.799 13.5241 103.632 12.7059 103.632 11.6966C103.632 10.6872 102.799 9.86897 101.771 9.86897C100.744 9.86897 99.9104 10.6872 99.9104 11.6966C99.9104 12.7059 100.744 13.5241 101.771 13.5241Z" fill="#B29BB3"/>
<path d="M114.225 9.86897C113.857 9.86897 113.497 9.97615 113.191 10.177C112.885 10.3778 112.646 10.6632 112.505 10.9972C112.365 11.3311 112.328 11.6986 112.4 12.0531C112.471 12.4076 112.649 12.7333 112.909 12.9888C113.169 13.2444 113.501 13.4185 113.862 13.489C114.223 13.5595 114.597 13.5233 114.937 13.385C115.277 13.2467 115.568 13.0125 115.772 12.7119C115.977 12.4114 116.086 12.058 116.086 11.6966C116.086 11.2118 115.89 10.747 115.541 10.4043C115.192 10.0615 114.718 9.86897 114.225 9.86897Z" fill="#B29BB3"/>
<path d="M126.682 9.86897C126.314 9.86897 125.954 9.97615 125.648 10.177C125.342 10.3778 125.104 10.6632 124.963 10.9972C124.822 11.3311 124.785 11.6986 124.857 12.0531C124.929 12.4076 125.106 12.7333 125.366 12.9888C125.626 13.2444 125.958 13.4185 126.319 13.489C126.68 13.5595 127.054 13.5233 127.394 13.385C127.734 13.2467 128.025 13.0125 128.229 12.7119C128.434 12.4114 128.543 12.058 128.543 11.6966C128.543 11.2118 128.347 10.747 127.998 10.4043C127.649 10.0615 127.176 9.86897 126.682 9.86897Z" fill="#B29BB3"/>
<path d="M139.135 13.5241C140.163 13.5241 140.996 12.7059 140.996 11.6966C140.996 10.6872 140.163 9.86897 139.135 9.86897C138.108 9.86897 137.274 10.6872 137.274 11.6966C137.274 12.7059 138.108 13.5241 139.135 13.5241Z" fill="#B29BB3"/>
<path d="M76.8609 0C76.4929 0 76.1331 0.107186 75.827 0.308004C75.521 0.508821 75.2825 0.79425 75.1416 1.1282C75.0008 1.46215 74.964 1.82962 75.0358 2.18413C75.1076 2.53865 75.2848 2.86429 75.545 3.11988C75.8053 3.37547 76.1369 3.54954 76.4979 3.62006C76.8589 3.69058 77.233 3.65438 77.5731 3.51605C77.9131 3.37773 78.2038 3.14349 78.4083 2.84294C78.6127 2.5424 78.7219 2.18905 78.7219 1.82759C78.7219 1.34288 78.5258 0.878031 78.1768 0.535292C77.8278 0.192553 77.3545 0 76.8609 0Z" fill="#B29BB3"/>
<path d="M89.3143 0C88.9462 0 88.5865 0.107186 88.2804 0.308004C87.9744 0.508821 87.7359 0.79425 87.595 1.1282C87.4542 1.46215 87.4173 1.82962 87.4891 2.18413C87.5609 2.53865 87.7382 2.86429 87.9984 3.11988C88.2587 3.37547 88.5903 3.54954 88.9513 3.62006C89.3122 3.69058 89.6864 3.65438 90.0265 3.51605C90.3665 3.37773 90.6571 3.14349 90.8616 2.84294C91.0661 2.5424 91.1752 2.18905 91.1752 1.82759C91.1752 1.34288 90.9792 0.878031 90.6302 0.535292C90.2812 0.192553 89.8079 0 89.3143 0Z" fill="#B29BB3"/>
<path d="M101.771 0C101.403 0 101.043 0.107186 100.737 0.308004C100.431 0.508821 100.193 0.79425 100.052 1.1282C99.9112 1.46215 99.8744 1.82962 99.9462 2.18413C100.018 2.53865 100.195 2.86429 100.455 3.11988C100.716 3.37547 101.047 3.54954 101.408 3.62006C101.769 3.69058 102.143 3.65438 102.483 3.51605C102.824 3.37773 103.114 3.14349 103.319 2.84294C103.523 2.5424 103.632 2.18905 103.632 1.82759C103.632 1.34288 103.436 0.878031 103.087 0.535292C102.738 0.192553 102.265 0 101.771 0Z" fill="#B29BB3"/>
<path d="M114.225 0C113.857 0 113.497 0.107186 113.191 0.308004C112.885 0.508821 112.646 0.79425 112.505 1.1282C112.365 1.46215 112.328 1.82962 112.4 2.18413C112.471 2.53865 112.649 2.86429 112.909 3.11988C113.169 3.37547 113.501 3.54954 113.862 3.62006C114.223 3.69058 114.597 3.65438 114.937 3.51605C115.277 3.37773 115.568 3.14349 115.772 2.84294C115.977 2.5424 116.086 2.18905 116.086 1.82759C116.086 1.34288 115.89 0.878031 115.541 0.535292C115.192 0.192553 114.718 0 114.225 0Z" fill="#B29BB3"/>
<path d="M126.682 0C126.314 0 125.954 0.107186 125.648 0.308004C125.342 0.508821 125.104 0.79425 124.963 1.1282C124.822 1.46215 124.785 1.82962 124.857 2.18413C124.929 2.53865 125.106 2.86429 125.366 3.11988C125.626 3.37547 125.958 3.54954 126.319 3.62006C126.68 3.69058 127.054 3.65438 127.394 3.51605C127.734 3.37773 128.025 3.14349 128.229 2.84294C128.434 2.5424 128.543 2.18905 128.543 1.82759C128.543 1.34288 128.347 0.878031 127.998 0.535292C127.649 0.192553 127.176 0 126.682 0Z" fill="#B29BB3"/>
<path d="M139.135 0C138.767 0 138.407 0.107186 138.101 0.308004C137.795 0.508821 137.557 0.79425 137.416 1.1282C137.275 1.46215 137.238 1.82962 137.31 2.18413C137.382 2.53865 137.559 2.86429 137.819 3.11988C138.08 3.37547 138.411 3.54954 138.772 3.62006C139.133 3.69058 139.507 3.65438 139.847 3.51605C140.188 3.37773 140.478 3.14349 140.683 2.84294C140.887 2.5424 140.996 2.18905 140.996 1.82759C140.996 1.34288 140.8 0.878031 140.451 0.535292C140.102 0.192553 139.629 0 139.135 0Z" fill="#B29BB3"/>
</g>
<defs>
<clipPath id="clip0_287_309">
<rect width="66" height="53" fill="white"/>
</clipPath>
<clipPath id="clip1_287_309">
<rect width="66" height="53" fill="white" transform="translate(75)"/>
</clipPath>
</defs>
</svg>
