<svg width="113" height="44" viewBox="0 0 113 44" fill="none" xmlns="http://www.w3.org/2000/svg">
<rect width="113" height="44" rx="10" fill="url(#paint0_linear_195_21)"/>
<path d="M81.1295 24.9926C81.1707 25.0566 81.226 25.1089 81.2904 25.145C81.3549 25.1811 81.4266 25.2 81.4994 25.2C81.5722 25.2 81.6439 25.1811 81.7083 25.145C81.7728 25.1089 81.828 25.0566 81.8693 24.9926L85.9196 18.7531C85.9665 18.6811 85.994 18.5968 85.9991 18.5093C86.0042 18.4219 85.9868 18.3346 85.9487 18.257C85.9105 18.1793 85.8532 18.1144 85.7828 18.069C85.7125 18.0237 85.6319 17.9999 85.5497 18H77.4491C77.3671 18.0004 77.2868 18.0245 77.2167 18.07C77.1467 18.1154 77.0895 18.1803 77.0515 18.2577C77.0135 18.3352 76.9959 18.4222 77.0008 18.5095C77.0057 18.5968 77.0328 18.681 77.0791 18.7531L81.1295 24.9926Z" fill="white"/>
<path d="M33.125 15.575H34.835V24.62H38.36V26H33.125V15.575ZM47.665 21.86C47.665 24.455 45.745 26.135 43.375 26.135C41.02 26.135 39.235 24.455 39.235 21.86C39.235 19.265 41.095 17.6 43.45 17.6C45.805 17.6 47.665 19.265 47.665 21.86ZM40.975 21.86C40.975 23.735 42.085 24.65 43.375 24.65C44.65 24.65 45.91 23.735 45.91 21.86C45.91 19.985 44.695 19.085 43.42 19.085C42.13 19.085 40.975 19.985 40.975 21.86ZM48.7855 21.83C48.7855 19.28 50.5105 17.6 52.6855 17.6C54.0355 17.6 55.0405 18.23 55.5505 18.935V17.735H57.2755V26.135C57.2755 28.385 55.8205 30.08 53.2405 30.08C51.0355 30.08 49.4005 28.985 49.1905 27.155H50.8855C51.1405 28.01 52.0555 28.595 53.2405 28.595C54.5605 28.595 55.5505 27.785 55.5505 26.135V24.755C55.0255 25.46 54.0355 26.135 52.6855 26.135C50.5105 26.135 48.7855 24.38 48.7855 21.83ZM55.5505 21.86C55.5505 20.09 54.3355 19.085 53.0455 19.085C51.7705 19.085 50.5405 20.045 50.5405 21.83C50.5405 23.615 51.7705 24.65 53.0455 24.65C54.3355 24.65 55.5505 23.645 55.5505 21.86ZM59.5215 26V17.735H61.2315V26H59.5215ZM60.3915 16.64C59.7765 16.64 59.2965 16.16 59.2965 15.545C59.2965 14.93 59.7765 14.45 60.3915 14.45C60.9915 14.45 61.4715 14.93 61.4715 15.545C61.4715 16.16 60.9915 16.64 60.3915 16.64ZM69.3416 26V21.38C69.3416 19.865 68.5166 19.085 67.2716 19.085C66.0116 19.085 65.1866 19.865 65.1866 21.38V26H63.4766V17.735H65.1866V18.68C65.7416 18.005 66.6566 17.6 67.6466 17.6C69.5816 17.6 71.0366 18.815 71.0366 21.125V26H69.3416Z" fill="white"/>
<defs>
<linearGradient id="paint0_linear_195_21" x1="6" y1="22" x2="113" y2="22" gradientUnits="userSpaceOnUse">
<stop stop-color="#534EBC"/>
<stop offset="1" stop-color="#8C288F"/>
</linearGradient>
</defs>
</svg>
